<svg xmlns="http://www.w3.org/2000/svg" viewBox="0 0 900 380"
     width="900" height="380" font-family="ui-monospace, Menlo, Consolas, Courier, monospace"
     font-size="13" fill="#111111" text-rendering="geometricPrecision">
  <defs>
    <marker id="arrow" viewBox="0 0 10 10" refX="9" refY="5"
            markerWidth="7" markerHeight="7" orient="auto-start-reverse">
      <path d="M 0 0 L 10 5 L 0 10 z" fill="#111111"/>
    </marker>
    <marker id="arrow-grey" viewBox="0 0 10 10" refX="9" refY="5"
            markerWidth="7" markerHeight="7" orient="auto-start-reverse">
      <path d="M 0 0 L 10 5 L 0 10 z" fill="#888888"/>
    </marker>
  </defs>
  <rect width="100%" height="100%" fill="white"/>
<text x="20" y="30" font-size="15" font-weight="700" text-anchor="start" fill="#111111" dominant-baseline="middle">Lite CAN topology</text>
<text x="20" y="48" font-size="11" font-weight="400" text-anchor="start" fill="#888888" dominant-baseline="middle">2 CAN-USB adapters, one per arm; neck shares can0</text><rect x="40" y="80" width="200" height="60" rx="6" ry="6" fill="#E7F0FF" stroke="#003262" stroke-width="1.5"/>
<text x="140" y="102" font-size="13" font-weight="600" text-anchor="middle" fill="#111111" dominant-baseline="middle">Onboard PC</text>
<text x="140" y="120" font-size="11" font-weight="400" text-anchor="middle" fill="#888888" dominant-baseline="middle">PREEMPT_RT</text><rect x="300" y="50" width="140" height="50" rx="6" ry="6" fill="#F4F4F4" stroke="#888888" stroke-width="1.5"/>
<text x="370" y="75" font-size="13" font-weight="600" text-anchor="middle" fill="#111111" dominant-baseline="middle">CAN-USB #0</text>
<rect x="300" y="130" width="140" height="50" rx="6" ry="6" fill="#F4F4F4" stroke="#888888" stroke-width="1.5"/>
<text x="370" y="155" font-size="13" font-weight="600" text-anchor="middle" fill="#111111" dominant-baseline="middle">CAN-USB #1</text>
<rect x="490" y="50" width="100" height="50" rx="6" ry="6" fill="#FFE7E7" stroke="#A00000" stroke-width="1.5"/>
<text x="540" y="75" font-size="13" font-weight="600" text-anchor="middle" fill="#111111" dominant-baseline="middle">can0</text>
<rect x="490" y="130" width="100" height="50" rx="6" ry="6" fill="#FFE7E7" stroke="#A00000" stroke-width="1.5"/>
<text x="540" y="155" font-size="13" font-weight="600" text-anchor="middle" fill="#111111" dominant-baseline="middle">can1</text>
<rect x="640" y="30" width="240" height="90" rx="6" ry="6" fill="#FFE7E7" stroke="#A00000" stroke-width="1.5"/>
<text x="760" y="66" font-size="13" font-weight="600" text-anchor="middle" fill="#111111" dominant-baseline="middle">7x Robstride</text>
<text x="760" y="83" font-size="13" font-weight="600" text-anchor="middle" fill="#111111" dominant-baseline="middle">left arm + 3x neck</text>
<rect x="640" y="150" width="240" height="90" rx="6" ry="6" fill="#FFE7E7" stroke="#A00000" stroke-width="1.5"/>
<text x="760" y="186" font-size="13" font-weight="600" text-anchor="middle" fill="#111111" dominant-baseline="middle">7x Robstride</text>
<text x="760" y="203" font-size="13" font-weight="600" text-anchor="middle" fill="#111111" dominant-baseline="middle">right arm</text>
<line x1="240" y1="100" x2="300" y2="75" stroke="#888888" stroke-width="1.4" marker-end="url(#arrow-grey)"/>
<rect x="257" y="69" width="26" height="16" rx="3" ry="3" fill="white" stroke="none"/>
<text x="270" y="77" font-size="11" font-weight="400" text-anchor="middle" fill="#888888" dominant-baseline="middle">USB</text><line x1="240" y1="120" x2="300" y2="155" stroke="#888888" stroke-width="1.4" marker-end="url(#arrow-grey)"/>
<rect x="257" y="119" width="26" height="16" rx="3" ry="3" fill="white" stroke="none"/>
<text x="270" y="127" font-size="11" font-weight="400" text-anchor="middle" fill="#888888" dominant-baseline="middle">USB</text><line x1="440" y1="75" x2="490" y2="75" stroke="#111111" stroke-width="1.4" marker-end="url(#arrow)"/><line x1="440" y1="155" x2="490" y2="155" stroke="#111111" stroke-width="1.4" marker-end="url(#arrow)"/><line x1="590" y1="75" x2="640" y2="75" stroke="#111111" stroke-width="1.4" marker-end="url(#arrow)"/>
<rect x="575" y="59" width="80" height="16" rx="3" ry="3" fill="white" stroke="none"/>
<text x="615" y="67" font-size="11" font-weight="400" text-anchor="middle" fill="#888888" dominant-baseline="middle">CAN @ 1 Mbit</text><line x1="590" y1="155" x2="640" y2="155" stroke="#111111" stroke-width="1.4" marker-end="url(#arrow)"/>
<rect x="575" y="139" width="80" height="16" rx="3" ry="3" fill="white" stroke="none"/>
<text x="615" y="147" font-size="11" font-weight="400" text-anchor="middle" fill="#888888" dominant-baseline="middle">CAN @ 1 Mbit</text><text x="450" y="310" font-size="11" font-weight="400" text-anchor="middle" fill="#888888" dominant-baseline="middle">On real hardware the humanoid_control_robstride plugin owns both buses; from the controller's perspective the 17 joints are one flat list.</text></svg>
